:SAMPLES-PER-SECOND 30
:FULLY-SPECIFIED
:DEGREES
187
root  20.1048 39.0272 -3.89417 124.286 89.0224 136.046
RightUpLeg  -13.7705 -12.1385 -7.13772
RightLeg  55.1465 -6.80105 -10.7643
RightFoot  2.84422 -0.602811 4.98759
RightToes  0.00048216 0.542163 -0.142577
Spine  32.0956 -1.10708 2.9186
Spine1  6.75235 0.77046 -4.28634
HEad  13.4988 10.099 -6.5145
LeftShoulder1  9.37961 -14.2029 -46.2055
LeftArm  -6.73302 29.0933 -23.1808
LeftForeArm  28.9199 -32.8444 -5.60703
LeftHand  -0.25398 0.0180481 5.50724
RightShoulder  5.43373 9.67099 35.2763
RightArm  0.932922 -18.7634 37.7998
RightForeArm  -8.92588 21.7711 5.5703
RightHand  -2.06221 5.42154 -22.2507
LeftUpLeg  -7.5403 13.8706 -1.55343
LeftLeg  22.4585 5.64588 2.90769
LeftFoot  -4.39089 -0.162206 3.11805
LeftToes  1.06245e-005 4.65856e-005 -8.18504e-006
188
root  18.9976 39.1196 -3.83494 84.8554 88.3747 94.5534
RightUpLeg  -11.1227 -10.9472 -8.86991
RightLeg  59.2946 -5.94334 -11.1559
RightFoot  1.39386 -0.424699 3.89504
RightToes  0.00048216 0.542163 -0.142577
Spine  27.1266 -0.450425 1.33351
Spine1  7.47014 0.764199 -3.34932
HEad  15.0348 11.3668 -6.50147
LeftShoulder1  9.20062 -13.8033 -46.3748
LeftArm  -6.39351 32.0064 -24.6114
LeftForeArm  29.1662 -31.6425 -5.30128
LeftHand  -0.25398 0.0180481 5.50724
RightShoulder  5.16498 9.24309 34.5655
RightArm  1.26344 -17.9912 37.5893
RightForeArm  -9.0051 26.6434 6.13359
RightHand  -2.23174 5.90247 -23.0358
LeftUpLeg  -9.78245 15.9035 -3.01755
LeftLeg  18.8974 4.84056 2.11749
LeftFoot  -2.4428 -0.127338 1.83556
LeftToes  1.06245e-005 4.65856e-005 -8.18504e-006
189
root  17.8869 39.0416 -3.74776 83.4235 87.221 91.443
RightUpLeg  -7.13987 -10.2138 -10.923
RightLeg  60.5186 -5.19983 -10.3645
RightFoot  1.44243 -0.361203 3.3066
RightToes  0.00048216 0.542163 -0.142577
Spine  22.355 0.0689802 -0.481084
Spine1  8.47796 0.69096 -2.24506
HEad  16.2172 12.3256 -6.43823
LeftShoulder1  9.08217 -13.4937 -46.6169
LeftArm  -5.94816 34.3036 -25.6259
LeftForeArm  28.7446 -30.2882 -5.00519
LeftHand  -0.25398 0.0180481 5.50724
RightShoulder  4.98154 8.89004 34.245
RightArm  0.401289 -16.73 37.0437
RightForeArm  -7.08233 31.359 7.26605
RightHand  -2.24489 5.8275 -23.3092
LeftUpLeg  -12.2476 16.5391 -4.69415
LeftLeg  16.6154 4.99475 1.56235
LeftFoot  -0.843433 -0.0437582 0.522957
LeftToes  1.06245e-005 4.65856e-005 -8.18504e-006
190
root  16.6727 38.8153 -3.62578 80.2816 86.5374 87.5866
RightUpLeg  -1.60162 -8.76178 -12.1845
RightLeg  58.3874 -4.02594 -7.5399
RightFoot  3.62819 -0.629188 4.90002
RightToes  0.00048216 0.542163 -0.142577
Spine  19.4951 0.485332 -1.17056
Spine1  8.83031 1.06788 -2.37036
HEad  17.6078 12.4769 -5.89168
LeftShoulder1  8.95662 -13.2906 -46.5253
LeftArm  -5.3776 35.9166 -26.4143
LeftForeArm  28.0579 -28.6724 -4.67248
LeftHand  -0.25398 0.0180481 5.50724
RightShoulder  4.9341 8.66126 34.6049
RightArm  -0.990899 -15.4507 36.14
RightForeArm  -4.51663 35.7677 8.34953
RightHand  -2.1293 5.33311 -23.1233
LeftUpLeg  -14.542 16.0245 -5.55396
LeftLeg  15.7022 6.07169 1.23662
LeftFoot  0.179679 -0.007183 0.0547245
LeftToes  1.06245e-005 4.65856e-005 -8.18504e-006
191
root  15.3429 38.5408 -3.49132 68.0527 86.0378 74.9641
RightUpLeg  4.42451 -6.07842 -12.3129
RightLeg  52.8585 -2.16214 -3.49574
RightFoot  3.70656 -1.10129 8.62313
RightToes  0.00048216 0.542163 -0.142577
Spine  17.9177 1.1119 -0.636221
Spine1  8.51589 2.09193 -3.50962
HEad  18.8898 11.8509 -5.04392
LeftShoulder1  8.79906 -13.1496 -46.0814
LeftArm  -5.33949 36.9982 -27.2331
LeftForeArm  27.8882 -27.086 -4.32849
LeftHand  -0.25398 0.0180481 5.50724
RightShoulder  4.9718 8.58898 35.1497
RightArm  -2.74524 -14.2732 35.2517
RightForeArm  -2.23782 39.5527 9.38881
RightHand  -2.02269 4.87721 -22.9399
LeftUpLeg  -16.8084 15.058 -5.77305
LeftLeg  14.9928 7.6908 0.974484
LeftFoot  1.14492 -0.0692739 0.561858
LeftToes  1.06245e-005 4.65856e-005 -8.18504e-006
192
root  13.9405 38.2958 -3.37131 53.0629 85.0621 59.3694
RightUpLeg  9.81006 -3.0266 -11.9173
RightLeg  44.8991 -0.157311 -0.476235
RightFoot  -2.88787 -0.903991 12.1772
RightToes  0.00048216 0.542163 -0.142577
Spine  16.51 1.88068 0.431432
Spine1  8.18327 3.41079 -4.73254
HEad  19.2925 11.1058 -4.50793
LeftShoulder1  8.71164 -13.0724 -45.8283
LeftArm  -6.04418 37.5707 -27.788
LeftForeArm  27.843 -26.0766 -4.11179
LeftHand  -0.25398 0.0180481 5.50724
RightShoulder  5.02955 8.67218 35.3404
RightArm  -4.22766 -12.4867 34.8316
RightForeArm  -1.16149 42.2144 10.2321
RightHand  -2.0621 4.95188 -23.2044
LeftUpLeg  -18.7933 13.4211 -5.55875
LeftLeg  13.4444 10.4495 0.47232
LeftFoot  2.1921 -0.184283 1.44537
LeftToes  1.06245e-005 4.65856e-005 -8.18504e-006
193
root  12.3623 38.0904 -3.27419 42.3641 83.8693 48.0938
RightUpLeg  13.553 -1.10033 -11.4106
RightLeg  36.4086 0.929503 0.501193
RightFoot  -14.1807 0.213386 13.5665
RightToes  0.00048216 0.542163 -0.142577
Spine  15.8488 2.33703 2.05572
Spine1  8.15961 4.55054 -6.21017
HEad  18.5125 10.8546 -4.78745
LeftShoulder1  8.76572 -13.0498 -46.1864
LeftArm  -6.83353 37.2666 -27.6827
LeftForeArm  27.2407 -25.7376 -4.07101
LeftHand  -0.25398 0.0180481 5.50724
RightShoulder  5.08162 8.81952 35.2702
RightArm  -5.0879 -9.27176 34.8403
RightForeArm  -0.926859 43.3626 10.6383
RightHand  -2.18522 5.3994 -23.5701
LeftUpLeg  -20.0476 10.0606 -4.17085
LeftLeg  10.7556 15.6078 -0.750603
LeftFoot  2.01087 -0.235345 1.91622
LeftToes  1.06245e-005 4.65856e-005 -8.18504e-006
194
root  10.5626 38.0025 -3.22521 31.2892 83.4472 36.6136
RightUpLeg  14.3669 -1.51531 -10.2233
RightLeg  30.219 0.540164 0.106505
RightFoot  -22.6098 0.932981 11.0463
RightToes  0.00048216 0.542163 -0.142577
Spine  16.553 2.04938 5.15853
Spine1  8.0777 5.23704 -8.19888
HEad  16.9817 11.0844 -5.90379
LeftShoulder1  8.84812 -12.9781 -46.8408
LeftArm  -7.4061 35.8602 -27.4059
LeftForeArm  26.8691 -25.5557 -4.05172
LeftHand  -0.25398 0.0180481 5.50724
RightShoulder  5.1033 8.87613 35.2571
RightArm  -5.19993 -4.79144 34.8788
RightForeArm  -0.545964 42.9776 10.4738
RightHand  -2.20185 5.58958 -23.3486
LeftUpLeg  -20.1846 5.08234 -1.00432
LeftLeg  5.83527 21.9035 -3.20923
LeftFoot  -0.251004 -0.115518 1.15687
LeftToes  1.06245e-005 4.65856e-005 -8.18504e-006
195
root  8.71759 38.0543 -3.22391 17.0231 83.8345 21.7462
RightUpLeg  12.1915 -3.59518 -8.1366
RightLeg  27.9273 -0.765055 -0.682676
RightFoot  -25.6468 0.670346 6.64773
RightToes  0.00048216 0.542163 -0.142577
Spine  17.5526 1.30609 8.90871
Spine1  7.62186 5.32101 -9.51903
HEad  15.4578 11.3347 -7.28136
LeftShoulder1  8.83176 -12.8051 -47.2578
LeftArm  -8.19583 33.8658 -27.8282
LeftForeArm  27.859 -25.13 -3.90962
LeftHand  -0.25398 0.0180481 5.50724
RightShoulder  5.07421 8.80686 35.2526
RightArm  -4.42716 -0.187847 34.7474
RightForeArm  0.170336 41.2703 9.82153
RightHand  -2.07888 5.35776 -22.5479
LeftUpLeg  -19.7404 3.10596 1.59835
LeftLeg  -0.801636 22.721 -5.71571
LeftFoot  -2.97461 0.110501 -1.2752
LeftToes  1.06245e-005 4.65856e-005 -8.18504e-006
196
root  7.00469 38.1785 -3.21313 7.18207 84.5956 11.053
RightUpLeg  8.78231 -5.36742 -6.15425
RightLeg  27.7667 -1.99366 -1.37618
RightFoot  -26.1098 0.342405 3.99365
RightToes  0.00048216 0.542163 -0.142577
Spine  17.7956 0.791469 10.5776
Spine1  7.17056 4.72399 -8.82727
HEad  14.5068 11.1758 -8.03216
LeftShoulder1  8.79678 -12.6855 -47.4208
LeftArm  -9.13891 32.0514 -28.8361
LeftForeArm  29.5225 -24.5566 -3.70285
LeftHand  -0.25398 0.0180481 5.50724
RightShoulder  5.02679 8.7403 35.0924
RightArm  -2.82962 3.43501 34.6169
RightForeArm  0.682061 38.4448 8.86086
RightHand  -1.94939 5.09855 -21.6983
LeftUpLeg  -19.8422 3.22122 2.55836
LeftLeg  -4.54737 19.6695 -6.56303
LeftFoot  -3.99545 0.297793 -4.20743
LeftToes  1.06245e-005 4.65856e-005 -8.18504e-006
197
root  5.49524 38.4322 -3.17718 9.73553 85.953 12.9821
RightUpLeg  6.0373 -6.53303 -5.30641
RightLeg  27.2751 -2.68465 -1.73764
RightFoot  -25.4331 0.228376 3.24295
RightToes  0.00048216 0.542163 -0.142577
Spine  17.5767 0.496468 9.52237
Spine1  7.1292 3.62294 -6.59267
HEad  14.25 10.3562 -7.61368
LeftShoulder1  8.88508 -12.7997 -47.5639
LeftArm  -9.27668 30.5735 -29.3996
LeftForeArm  30.2772 -24.0593 -3.56169
LeftHand  -0.25398 0.0180481 5.50724
RightShoulder  5.02577 8.77809 34.96
RightArm  -0.938107 5.52232 34.7455
RightForeArm  0.718228 34.759 7.76292
RightHand  -1.89435 5.10186 -21.1029
LeftUpLeg  -20.769 2.73118 2.15904
LeftLeg  -2.15216 17.9401 -5.60215
LeftFoot  -3.60631 0.394963 -5.52792
LeftToes  1.06245e-005 4.65856e-005 -8.18504e-006
198
root  4.2028 38.8163 -3.18013 23.2575 87.3943 26.3214
RightUpLeg  4.45232 -8.00442 -5.32369
RightLeg  25.8394 -2.74913 -1.68525
RightFoot  -23.4938 0.112774 2.53808
RightToes  0.00048216 0.542163 -0.142577
Spine  17.3509 0.19056 8.11061
Spine1  7.17844 2.58375 -4.72503
HEad  14.4196 8.85155 -6.29807
LeftShoulder1  9.02782 -13.0536 -47.5893
LeftArm  -8.12704 29.1413 -28.9624
LeftForeArm  30.1088 -23.7623 -3.51243
LeftHand  -0.25398 0.0180481 5.50724
RightShoulder  5.07272 8.85239 35.0917
RightArm  0.567468 5.75791 35.2684
RightForeArm  0.289125 30.7091 6.70276
RightHand  -1.89177 5.2692 -20.7599
LeftUpLeg  -21.3021 3.82359 0.453151
LeftLeg  4.30918 16.2273 -3.2733
LeftFoot  -3.3352 0.373008 -5.03982
LeftToes  1.06245e-005 4.65856e-005 -8.18504e-006
